<svg width="759" height="172" viewBox="0 0 759 172" fill="none" xmlns="http://www.w3.org/2000/svg">
<path d="M304.33 109.416L302.54 115.395L300.785 109.416L267.918 32.1157H243.464V139.383H262.332V63.229L262.082 59.7203L295.2 139.383H309.307L342.461 59.1832L342.318 63.229V139.383H361.15V32.1157H336.41L304.33 109.416Z" fill="black"/>
<path d="M438.344 64.3035C432.329 60.8305 425.454 59.0762 417.685 59.0762C409.916 59.0762 403.256 60.8663 397.026 64.4109C390.832 67.9555 385.927 72.8605 382.383 79.0904C378.838 85.3202 377.048 92.3019 377.048 99.9997C377.048 107.697 378.802 114.93 382.347 121.231C385.856 127.533 390.725 132.402 396.919 135.946C403.113 139.455 410.023 141.245 417.685 141.245C423.664 141.245 429.142 140.279 434.119 138.381C439.095 136.484 443.356 133.762 446.901 130.289C450.445 126.817 453.202 122.699 455.135 117.866H435.658C433.653 120.623 431.147 122.735 428.104 124.203C425.06 125.671 421.588 126.387 417.721 126.387C413.281 126.387 409.378 125.349 406.049 123.2C402.719 121.088 400.07 118.08 398.208 114.142C396.811 111.242 395.952 108.02 395.594 104.439H457.463V100.071C457.463 92.1229 455.78 84.998 452.414 78.8039C449.049 72.6099 444.359 67.7406 438.344 64.2677V64.3035ZM398.208 85.8572C400.07 82.0621 402.683 79.0904 406.049 77.0138C409.414 74.9371 413.317 73.8631 417.685 73.8631C422.053 73.8631 425.848 74.9372 429.142 77.0496C432.436 79.162 434.978 82.1695 436.768 86.0005C437.699 87.9697 438.344 90.1179 438.809 92.4093H396.024C396.489 90.0463 397.205 87.8622 398.172 85.8572H398.208Z" fill="black"/>
<path d="M491.047 32.1157H472.966V139.383H491.047V32.1157Z" fill="black"/>
<path d="M531.791 32.1157H513.71V139.383H531.791V32.1157Z" fill="black"/>
<path d="M602.968 106.372C602.968 110.06 602.216 113.318 600.712 116.218C599.209 119.118 597.06 121.338 594.304 122.949C591.547 124.561 588.36 125.348 584.816 125.348C581.45 125.348 578.586 124.632 576.187 123.236C573.824 121.84 571.998 119.799 570.709 117.149C569.42 114.5 568.776 111.277 568.776 107.482V60.9019H550.695V110.239C550.695 116.684 551.876 122.233 554.275 126.852C556.638 131.507 559.932 135.051 564.157 137.486C568.382 139.956 573.287 141.173 578.908 141.173C584.995 141.173 590.258 139.777 594.733 136.949C598.349 134.693 601.249 131.578 603.505 127.783V139.347H621.049V60.9019H602.968V106.337V106.372Z" fill="black"/>
<path d="M755.634 73.6479C753.379 68.9934 750.121 65.4131 745.896 62.871C741.671 60.329 736.802 59.0758 731.216 59.0758C725.201 59.0758 719.938 60.508 715.427 63.3723C711.345 65.9859 708.159 69.6021 705.76 74.1491C705.688 73.9701 705.617 73.7911 705.545 73.6121C703.361 68.9576 700.21 65.3773 696.165 62.8352C692.119 60.2932 687.285 59.04 681.736 59.04C676.186 59.04 671.138 60.4364 666.985 63.2291C663.476 65.5921 660.683 68.8502 658.499 72.9318V60.9018H640.956V139.347H659.036V93.8411C659.036 90.0101 659.717 86.6804 661.113 83.8161C662.509 80.9518 664.443 78.7678 667.021 77.2283C669.563 75.6887 672.57 74.9368 675.971 74.9368C679.122 74.9368 681.843 75.6171 684.135 77.0134C686.39 78.4098 688.145 80.379 689.362 82.921C690.544 85.4631 691.152 88.5064 691.152 92.0509V139.383H708.839V93.8769C708.839 90.0459 709.555 86.7162 710.952 83.8519C712.348 80.9876 714.353 78.8036 716.931 77.2641C719.509 75.7245 722.48 74.9726 725.846 74.9726C728.997 74.9726 731.718 75.6529 733.973 77.0492C736.229 78.4456 737.947 80.4148 739.129 82.9568C740.346 85.4989 740.919 88.5422 740.919 92.0867V139.419H759V89.9385C759 83.7445 757.854 78.3382 755.599 73.6837L755.634 73.6479Z" fill="black"/>
<path d="M64.1596 171.857H118.223L112.673 85.9286L107.124 0H52.5234L64.1596 171.857Z" fill="url(#paint0_linear_149_2173)"/>
<path d="M0 171.857H42.6779L21.1957 0H0V171.857Z" fill="url(#paint1_linear_149_2173)"/>
<path d="M150.089 171.857H171.857V0H128.606L150.089 171.857Z" fill="url(#paint2_linear_149_2173)"/>
<defs>
<linearGradient id="paint0_linear_149_2173" x1="12.6383" y1="197.421" x2="155.495" y2="-21.5538" gradientUnits="userSpaceOnUse">
<stop offset="0.16" stop-color="#087CFA"/>
<stop offset="0.29" stop-color="#0789F8"/>
<stop offset="0.52" stop-color="#07ABF4"/>
<stop offset="0.66" stop-color="#07C3F2"/>
<stop offset="0.67" stop-color="#07C3EE"/>
<stop offset="0.82" stop-color="#19D1A5"/>
<stop offset="0.89" stop-color="#21D789"/>
</linearGradient>
<linearGradient id="paint1_linear_149_2173" x1="-32.1874" y1="167.955" x2="110.561" y2="-50.7695" gradientUnits="userSpaceOnUse">
<stop offset="0.16" stop-color="#087CFA"/>
<stop offset="0.29" stop-color="#0789F8"/>
<stop offset="0.52" stop-color="#07ABF4"/>
<stop offset="0.66" stop-color="#07C3F2"/>
<stop offset="0.67" stop-color="#07C3EE"/>
<stop offset="0.82" stop-color="#19D1A5"/>
<stop offset="0.89" stop-color="#21D789"/>
</linearGradient>
<linearGradient id="paint2_linear_149_2173" x1="58.0734" y1="227.174" x2="201.109" y2="7.98417" gradientUnits="userSpaceOnUse">
<stop offset="0.16" stop-color="#087CFA"/>
<stop offset="0.29" stop-color="#0789F8"/>
<stop offset="0.52" stop-color="#07ABF4"/>
<stop offset="0.66" stop-color="#07C3F2"/>
<stop offset="0.67" stop-color="#07C3EE"/>
<stop offset="0.82" stop-color="#19D1A5"/>
<stop offset="0.89" stop-color="#21D789"/>
</linearGradient>
</defs>
</svg>
